<svg width="503" height="134" viewBox="0 0 503 134" fill="none" xmlns="http://www.w3.org/2000/svg">
<path d="M31.979 131.302V48.3839H76.9665V131.302H91.7816V0H76.9665V35.9732H31.979V27.5195C31.979 21.2242 34.6891 18.5262 41.0126 18.5262H59.9833V5.57584H40.1093C25.1135 5.57584 17.1639 13.4899 17.1639 26.2604V35.9732H0V48.3839H17.1639V131.302H31.979ZM163.147 134C183.563 134 199.824 125.366 209.941 108.819L198.198 101.085C190.067 114.574 178.504 121.409 163.147 121.409C143.273 121.409 127.013 107.74 127.013 88.8537H212.832V83.4577C212.832 54.1396 191.332 33.2752 162.967 33.2752C133.156 33.2752 112.017 53.9597 112.017 84.1772C112.017 114.395 132.433 134 163.147 134ZM197.656 76.9825H127.193C128.277 59.1758 143.093 45.8658 162.967 45.8658C181.214 45.8658 196.572 59.7154 197.656 76.9825ZM257.93 134C273.106 134 287.018 128.064 293.522 119.251H293.883V131.302H308.157V64.3919C308.157 45.506 292.619 33.2752 268.228 33.2752C244.198 33.2752 226.673 46.0456 223.06 66.0107L237.333 69.0685C240.224 54.6792 251.606 46.2255 268.228 46.2255C282.862 46.2255 292.257 52.1611 292.257 61.3342C292.257 68.7087 285.211 72.4859 264.795 75.9034C234.261 80.7597 222.518 89.0335 222.518 105.761C222.518 123.208 235.707 134 257.93 134ZM261.001 120.87C245.102 120.87 237.514 116.013 237.514 105.761C237.514 96.408 246.005 91.3718 267.505 87.7745C283.404 85.0765 290.27 82.3785 292.98 77.5221H293.341V98.0268C293.341 110.078 277.984 120.87 261.001 120.87ZM371.086 131.302L418.241 35.9732H402.161L364.581 114.754H364.22L326.459 35.9732H310.199L357.354 131.302H371.086ZM452.773 134C467.95 134 481.861 128.064 488.366 119.251H488.727V131.302H503V64.3919C503 45.506 487.462 33.2752 463.071 33.2752C439.042 33.2752 421.517 46.0456 417.903 66.0107L432.176 69.0685C435.067 54.6792 446.449 46.2255 463.071 46.2255C477.706 46.2255 487.101 52.1611 487.101 61.3342C487.101 68.7087 480.055 72.4859 459.639 75.9034C429.105 80.7597 417.361 89.0335 417.361 105.761C417.361 123.208 430.55 134 452.773 134ZM455.844 120.87C439.945 120.87 432.357 116.013 432.357 105.761C432.357 96.408 440.849 91.3718 462.349 87.7745C478.248 85.0765 485.113 82.3785 487.823 77.5221H488.185V98.0268C488.185 110.078 472.828 120.87 455.844 120.87Z" fill="white"/>
</svg>
